<?xml version="1.0" standalone="no"?>
<!DOCTYPE svg PUBLIC "-//W3C//DTD SVG 20010904//EN"
 "http://www.w3.org/TR/2001/REC-SVG-20010904/DTD/svg10.dtd">
<svg version="1.0" xmlns="http://www.w3.org/2000/svg"
 width="974.000000pt" height="461.000000pt" viewBox="0 0 974.000000 461.000000"
 preserveAspectRatio="xMidYMid meet">
<g transform="translate(0.000000,461.000000) scale(0.100000,-0.100000)"
fill="white" stroke="none">
<path d="M1415 4539 c-62 -14 -196 -60 -236 -80 -38 -19 -55 -44 -38 -55 12
-7 89 -162 89 -179 0 -6 -16 -19 -36 -30 -70 -37 -71 -89 -2 -121 24 -11 42
-25 40 -32 -5 -25 19 -93 38 -110 13 -11 22 -35 26 -75 5 -42 14 -68 32 -89
25 -29 25 -30 5 -24 -16 5 -26 1 -37 -16 -25 -39 -28 -73 -11 -114 l16 -39 22
25 c18 21 65 50 82 50 2 0 -1 -15 -6 -32 -5 -18 -9 -40 -8 -48 0 -8 5 1 10 20
18 64 16 63 51 38 18 -13 42 -24 53 -26 46 -7 45 -3 45 -199 0 -222 -5 -260
-33 -269 -11 -3 -15 -9 -10 -13 6 -3 15 -16 22 -28 15 -28 1 -63 -36 -92 l-28
-23 38 22 37 22 -1 -34 c0 -18 3 -63 7 -100 7 -67 6 -68 -17 -69 l-24 0 23 -9
c31 -13 28 -25 -15 -46 -44 -20 -309 -38 -330 -21 -7 5 -13 6 -13 1 0 -5 -35
-10 -77 -12 -79 -3 -87 4 -30 25 18 6 24 12 15 12 -9 1 -28 -3 -42 -9 -14 -5
-26 -7 -26 -4 0 13 25 50 42 62 11 8 18 25 18 46 0 19 7 56 15 82 8 27 20 76
26 108 l11 60 19 -25 c22 -29 25 -19 4 20 -11 22 -12 37 -4 65 5 20 14 36 19
36 4 0 6 9 3 20 -4 14 3 30 18 47 13 14 19 23 12 19 -16 -9 -10 42 12 103 8
24 13 46 10 49 -3 3 -5 -1 -5 -8 0 -7 -2 -11 -5 -8 -7 7 35 280 45 293 4 6 10
21 12 35 3 14 9 33 13 42 7 17 5 17 -31 2 -25 -10 -93 -20 -189 -26 -82 -5
-153 -12 -156 -16 -4 -4 -34 -61 -69 -127 -34 -65 -75 -135 -91 -155 -16 -20
-45 -69 -64 -109 -20 -41 -44 -85 -53 -100 -10 -14 -26 -53 -36 -86 -17 -59
-17 -64 2 -150 11 -50 43 -157 71 -239 71 -205 75 -224 56 -295 -19 -75 -20
-171 -2 -171 7 0 26 13 42 30 16 16 35 30 43 30 15 0 15 -1 -23 -120 -13 -41
-28 -101 -34 -133 -16 -86 -43 -477 -36 -506 3 -13 104 -124 227 -249 l220
-224 -8 -66 c-11 -90 -8 -145 12 -205 15 -45 15 -61 4 -150 -16 -118 -17 -117
92 -117 68 0 80 3 107 26 35 29 38 46 15 100 -15 37 -15 40 7 80 21 40 22 43
6 68 -16 23 -14 56 2 56 12 0 41 -104 41 -146 0 -22 6 -49 14 -59 13 -18 15
-18 40 -2 30 20 30 21 11 -58 -8 -33 -15 -63 -15 -67 0 -5 69 -8 153 -8 l154
0 11 52 c6 29 41 192 77 363 35 171 67 320 70 333 5 21 10 22 118 22 61 0 132
5 157 11 101 23 183 103 221 217 10 31 59 249 109 485 112 531 116 599 38 647
-18 11 -49 23 -68 26 -48 8 -82 25 -76 40 6 16 -11 30 -60 48 -41 15 -118 50
-144 66 -8 5 -42 20 -75 35 -127 55 -245 157 -245 213 0 11 -8 26 -18 35 -13
12 -17 26 -14 47 3 21 0 32 -12 36 -10 4 -16 18 -16 38 0 17 -7 56 -16 86 -9
30 -15 72 -14 94 0 21 -6 48 -14 61 -8 13 -65 49 -126 82 -62 32 -121 67 -133
78 -14 13 -22 15 -25 7 -2 -7 -11 -12 -20 -12 -12 0 -11 4 6 23 12 13 22 34
22 46 0 13 8 34 19 47 10 13 22 41 26 61 4 21 12 41 18 45 6 4 10 43 9 103
l-2 97 50 48 c38 37 50 56 50 79 0 38 -22 51 -88 51 l-49 0 -11 83 c-7 45 -12
97 -12 115 0 32 0 32 -47 31 -27 -1 -66 -5 -88 -10z m175 -278 c0 -67 -128
-134 -254 -134 -50 0 -62 3 -78 22 -31 40 -24 46 60 47 89 0 175 29 226 74 36
32 46 30 46 -9z m-715 -1144 c-18 -120 -45 -221 -55 -210 -12 14 -44 147 -41
173 1 14 14 36 27 51 13 14 24 33 24 43 0 10 12 35 28 56 26 38 27 38 30 13 2
-13 -4 -71 -13 -126z m880 -108 c22 -34 60 -78 83 -99 45 -40 180 -111 242
-128 30 -9 22 -10 -52 -11 -73 -1 -87 -4 -92 -18 -3 -10 -28 -124 -55 -253
-28 -129 -102 -480 -166 -780 -64 -300 -123 -580 -132 -623 -9 -43 -20 -74
-23 -70 -4 5 -15 30 -24 57 -14 44 -14 52 -1 72 8 13 15 53 17 97 3 83 -8 107
-51 107 l-26 0 2 112 c1 62 4 124 8 138 3 14 8 46 9 70 2 25 14 72 26 105 20
52 24 89 31 285 8 204 24 375 28 295 1 -26 20 -74 21 -52 0 4 7 49 15 100 8
50 21 173 30 272 22 246 44 385 63 385 4 0 25 -28 47 -61z m550 -464 c14 -13
25 -29 25 -36 0 -12 -72 -354 -141 -668 -23 -101 -48 -195 -57 -209 -28 -42
-132 -72 -132 -37 0 13 38 197 156 755 19 91 38 177 41 193 5 24 10 27 45 27
28 0 46 -7 63 -25z m-1110 -437 c5 -18 9 -153 10 -299 l1 -266 -68 68 c-38 38
-73 69 -77 69 -18 0 -18 39 -1 106 23 87 62 204 89 267 12 27 21 57 21 68 0
31 17 22 25 -13z"/>
<path d="M5430 2480 l-102 -110 2173 2 2173 3 18 85 c9 47 17 95 18 108 l0 22
-2089 0 -2089 0 -102 -110z m4234 38 c-4 -18 -9 -49 -13 -68 l-7 -35 -2113 -3
-2113 -2 63 70 62 70 2063 0 2064 0 -6 -32z"/>
<path d="M4918 2349 c-21 -5 -65 -22 -98 -39 -33 -16 -62 -30 -66 -30 -4 0 -4
14 0 30 l6 30 -130 0 c-114 0 -129 -2 -134 -17 -3 -10 -50 -232 -106 -493 -55
-261 -107 -504 -115 -540 -8 -36 -42 -195 -75 -355 -34 -159 -63 -298 -66
-307 -5 -17 6 -18 125 -18 115 0 130 2 135 18 6 18 252 1171 287 1347 22 106
36 137 70 155 25 14 65 6 73 -15 5 -14 -43 -251 -238 -1168 -37 -169 -66 -314
-66 -322 0 -12 22 -15 128 -15 l128 0 13 63 c7 34 23 112 36 172 13 61 76 355
140 655 63 300 122 575 130 612 19 85 19 161 0 197 -23 46 -90 61 -177 40z"/>
<path d="M7423 2345 c-23 -7 -63 -25 -87 -39 l-46 -27 6 31 7 30 -132 0 c-72
0 -131 -2 -131 -4 0 -2 -58 -278 -129 -613 -72 -334 -155 -727 -186 -873 -31
-146 -58 -273 -61 -282 -5 -17 -84 -18 -1484 -18 l-1478 0 -94 -100 c-51 -55
-94 -105 -96 -110 -2 -7 540 -10 1547 -10 1045 0 1551 -3 1551 -10 0 -6 -11
-62 -25 -126 -14 -64 -25 -122 -25 -130 0 -11 24 -14 128 -14 l129 0 29 140
28 140 298 0 297 0 -2 -104 c-2 -98 -1 -106 22 -130 38 -41 80 -48 262 -44
164 3 166 3 215 33 59 37 108 106 132 187 l17 58 582 0 c545 0 582 1 587 18 6
21 36 181 36 193 0 5 -246 9 -575 9 -479 0 -575 2 -575 14 0 7 34 170 75 362
195 912 295 1388 295 1400 0 11 -27 14 -129 14 l-128 0 -6 -32 c-5 -28 -135
-641 -248 -1173 -17 -77 -37 -174 -46 -215 -8 -41 -20 -83 -25 -93 -25 -48
-108 -38 -108 14 0 15 68 346 151 735 82 390 153 721 156 737 l6 27 -131 0
-130 0 -12 -52 c-6 -29 -77 -359 -157 -733 -134 -619 -147 -689 -148 -782 0
-98 1 -104 27 -129 21 -21 39 -28 81 -32 66 -5 115 9 182 54 58 39 63 33 42
-56 l-12 -55 -492 -3 -491 -2 5 22 c3 13 9 40 14 61 l10 37 46 -35 c107 -81
255 -51 322 67 30 52 33 63 211 898 61 283 113 549 116 590 6 68 4 78 -18 110
-38 56 -117 73 -205 45z m-60 -226 c8 -13 -24 -179 -122 -645 -73 -346 -137
-634 -143 -641 -18 -22 -78 -28 -96 -9 -15 14 -10 44 57 363 193 922 196 935
223 947 24 10 71 1 81 -15z m-713 -1613 c0 -8 -3 -21 -6 -30 -6 -15 -138 -16
-1399 -16 -1226 0 -1394 -2 -1405 -15 -11 -13 144 -15 1389 -15 l1401 0 0 -25
0 -25 -1522 0 -1522 0 69 70 69 70 1463 0 c1256 0 1463 -2 1463 -14z m1238
-13 l-3 -28 -487 -3 -488 -2 0 23 c0 13 3 27 7 30 3 4 224 7 490 7 l484 0 -3
-27z m1392 20 c0 -5 -3 -18 -6 -30 l-6 -23 -559 0 c-594 0 -571 -2 -553 44 6
14 65 16 565 16 307 0 559 -3 559 -7z m-1404 -99 c-3 -9 -6 -20 -6 -25 0 -5
-199 -9 -490 -9 -468 0 -490 1 -490 18 0 10 3 22 7 25 3 4 227 7 496 7 442 0
489 -2 483 -16z m1384 7 c0 -42 19 -41 -571 -41 -333 0 -559 4 -559 9 0 42
-19 41 571 41 333 0 559 -4 559 -9z"/>
<path d="M2930 2329 c-49 -15 -113 -66 -148 -119 -48 -73 -39 -33 -237 -968
-136 -642 -137 -637 205 -630 171 3 176 4 223 31 54 32 102 91 117 146 11 37
219 1009 265 1236 30 145 29 198 -4 244 -41 57 -70 65 -236 68 -82 1 -166 -3
-185 -8z m171 -195 c10 -13 10 -30 -4 -97 -42 -215 -249 -1182 -257 -1203 -12
-32 -52 -47 -84 -32 -14 6 -27 16 -29 23 -3 6 10 81 28 166 18 85 79 373 135
639 109 520 109 520 170 520 15 0 33 -7 41 -16z"/>
<path d="M3763 2326 c-83 -26 -140 -94 -167 -198 -38 -148 -278 -1298 -283
-1358 -7 -83 13 -133 59 -149 17 -6 107 -11 203 -11 241 0 306 23 353 124 17
36 112 431 112 465 0 7 -45 11 -128 11 l-129 0 -38 -182 c-21 -101 -42 -190
-46 -199 -19 -37 -98 -41 -112 -7 -3 8 19 127 48 264 29 137 90 425 135 639
87 413 91 425 145 425 39 0 55 -11 55 -36 0 -14 -16 -97 -35 -186 -19 -89 -33
-164 -30 -166 5 -5 248 -2 253 3 2 2 21 84 43 182 61 278 53 357 -39 383 -54
15 -348 12 -399 -4z"/>
<path d="M5502 2326 c-105 -34 -174 -132 -211 -299 -26 -113 -200 -933 -236
-1112 -40 -193 -28 -257 52 -291 48 -21 332 -19 402 2 68 20 132 82 154 150
32 97 288 1329 289 1390 2 73 -20 118 -72 149 -30 17 -55 20 -185 22 -106 2
-163 -2 -193 -11z m181 -196 c6 -11 -30 -202 -122 -640 -73 -344 -137 -638
-143 -653 -6 -16 -22 -33 -35 -38 -26 -10 -71 3 -78 23 -3 7 56 301 130 653
116 554 138 642 157 658 25 21 76 19 91 -3z"/>
<path d="M6316 2328 c-58 -16 -127 -89 -149 -158 -14 -43 -87 -367 -87 -386 0
-2 58 -4 130 -4 126 0 130 1 135 23 3 12 16 76 30 142 14 66 30 134 35 151 12
35 46 57 80 52 43 -6 46 -28 22 -151 -45 -232 -43 -229 -277 -427 -160 -135
-214 -189 -240 -241 -9 -17 -39 -133 -66 -257 -72 -331 -68 -420 18 -453 13
-5 102 -9 197 -9 308 0 339 29 416 385 23 105 43 196 45 203 3 9 -27 12 -128
12 l-132 0 -38 -175 c-43 -199 -50 -218 -83 -234 -29 -13 -71 3 -79 29 -7 24
71 366 96 418 16 33 63 78 198 191 196 165 236 203 258 244 17 34 100 414 109
503 8 78 -9 115 -66 138 -32 13 -75 16 -213 15 -94 -1 -190 -6 -211 -11z"/>
<path d="M8873 2330 c-51 -12 -121 -58 -148 -98 -14 -20 -32 -59 -40 -87 -11
-39 -75 -330 -75 -342 0 -2 58 -3 130 -3 126 0 130 1 135 23 3 12 18 82 34
155 17 78 36 141 47 153 22 25 80 26 93 1 11 -21 -68 -411 -93 -461 -25 -48
-56 -63 -138 -65 l-72 -3 -13 -64 c-7 -35 -15 -74 -18 -85 -5 -21 -1 -22 70
-26 88 -4 108 -18 107 -75 -2 -57 -100 -503 -117 -529 -19 -29 -46 -37 -79
-25 -34 14 -34 24 10 226 20 91 34 171 31 178 -3 9 -38 11 -129 9 l-125 -3
-42 -202 c-44 -217 -50 -291 -25 -338 25 -50 63 -59 249 -59 187 0 237 9 288
51 60 49 83 114 143 395 63 297 72 361 55 393 -17 31 -70 61 -108 61 -49 0
-40 14 19 28 71 17 122 52 146 104 30 61 113 458 115 545 2 83 -16 118 -74
139 -38 14 -322 17 -376 4z"/>
<path d="M445 1658 c-25 -71 -372 -1315 -369 -1320 3 -5 752 -8 1664 -8 l1658
0 102 108 102 107 -1621 3 c-892 1 -1621 5 -1621 10 0 6 239 852 255 902 4 13
-19 47 -76 114 -44 53 -83 96 -85 96 -3 0 -7 -6 -9 -12z"/>
</g>
</svg>
