<?xml version="1.0" standalone="no"?>
<!DOCTYPE svg PUBLIC "-//W3C//DTD SVG 20010904//EN"
 "http://www.w3.org/TR/2001/REC-SVG-20010904/DTD/svg10.dtd">
<svg version="1.0" xmlns="http://www.w3.org/2000/svg"
 width="400.000000pt" height="400.000000pt" viewBox="0 0 400.000000 400.000000"
 preserveAspectRatio="xMidYMid meet">

<g transform="translate(0.000000,400.000000) scale(0.100000,-0.100000)"
fill="black" stroke="none">
<path d="M885 2921 c-87 -8 -120 -20 -130 -51 -3 -11 -18 -29 -32 -40 -22 -17
-40 -20 -142 -20 -137 0 -164 -11 -159 -63 5 -57 10 -57 469 -56 276 1 423 -2
436 -9 40 -22 44 -36 17 -70 l-25 -32 -545 0 -545 0 -24 -25 c-30 -29 -31 -49
-5 -75 19 -19 33 -20 484 -20 l465 0 28 -24 28 -24 -29 -31 -30 -31 -394 0
c-440 0 -451 -2 -452 -67 0 -54 -12 -53 554 -53 411 0 526 -3 540 -13 12 -9
17 -23 14 -47 -5 -59 -4 -59 -668 -59 -327 0 -602 -2 -610 -6 -8 -3 -24 -18
-34 -32 l-19 -26 27 -24 27 -23 438 0 c483 0 475 1 469 -60 -5 -53 -29 -60
-204 -60 -131 0 -153 -2 -167 -17 -18 -21 -34 -144 -44 -329 l-6 -130 28 -22
c25 -20 39 -22 160 -22 l132 0 38 90 c47 115 109 186 203 232 63 31 73 33 172
33 94 0 110 -3 155 -27 98 -52 146 -119 171 -241 8 -39 17 -74 20 -79 3 -4
263 -8 578 -8 447 0 576 3 583 13 5 6 17 37 26 68 34 111 111 197 227 253 57
27 75 31 150 30 72 0 94 -4 141 -27 102 -49 171 -144 193 -266 14 -74 26 -82
92 -61 60 20 64 35 90 323 33 351 31 358 -121 517 -45 47 -120 129 -169 182
-78 87 -146 138 -183 138 -9 0 -47 -80 -40 -86 1 -1 21 -11 44 -23 23 -11 48
-31 54 -44 7 -12 65 -79 131 -148 65 -69 118 -129 118 -133 0 -12 -20 -4 -115
46 -103 54 -118 74 -137 174 -12 64 -13 66 -59 90 -26 13 -50 28 -53 33 -3 5
1 25 9 45 8 19 15 50 15 68 0 18 9 41 21 54 23 25 18 44 -11 44 -20 0 -30 19
-30 55 0 34 -14 38 -73 21 -81 -24 -83 -27 -62 -73 10 -21 23 -41 29 -45 13
-8 50 -1 89 19 23 12 27 12 27 -1 0 -19 -50 -46 -83 -46 -14 0 -30 6 -37 14
-13 17 -40 10 -40 -10 0 -7 6 -17 14 -21 16 -10 58 -123 45 -123 -5 0 -9 -9
-9 -20 0 -16 7 -20 31 -20 60 0 69 -13 69 -95 0 -40 -4 -76 -9 -79 -4 -3 -4
-31 2 -62 6 -35 6 -59 0 -65 -6 -6 -48 -9 -95 -7 l-85 3 27 95 c15 52 32 129
37 170 6 41 14 82 17 91 6 14 -1 14 -64 5 l-71 -11 -29 -50 c-16 -28 -44 -78
-62 -113 l-32 -62 16 -63 c15 -56 16 -78 3 -66 -2 3 -12 33 -20 67 -16 62 -16
62 11 122 15 33 33 65 40 71 8 6 14 18 14 26 0 14 37 72 55 85 6 4 33 8 60 8
69 0 82 10 60 44 -17 26 -19 26 -138 26 l-120 0 6 58 c3 31 9 104 13 162 7
103 6 106 -19 135 l-25 30 -939 1 c-516 1 -974 -2 -1018 -5z"/>
<path d="M1280 1646 c-71 -15 -106 -35 -159 -86 -62 -61 -94 -137 -94 -224 0
-42 6 -85 15 -107 82 -189 341 -216 490 -50 55 61 78 122 78 205 -1 112 -52
196 -143 240 -66 31 -118 37 -187 22z m141 -185 c33 -33 39 -45 39 -81 0 -58
-26 -107 -72 -137 -122 -81 -262 39 -196 167 31 60 77 90 141 90 44 0 53 -4
88 -39z"/>
<path d="M3208 1649 c-208 -33 -335 -273 -236 -451 28 -51 94 -104 151 -119
61 -16 164 -7 217 19 157 76 230 267 157 408 -55 107 -166 162 -289 143z m106
-168 c40 -27 55 -57 56 -112 0 -107 -109 -181 -208 -140 -70 29 -95 133 -48
202 45 66 140 89 200 50z"/>
</g>
</svg>
