<?xml version="1.0" encoding="iso-8859-1"?>

<!DOCTYPE svg >
<svg version="1.1" id="Capa_1" xmlns="http://www.w3.org/2000/svg" xmlns:xlink="http://www.w3.org/1999/xlink" x="0px" y="0px"
	 width="485.234px" height="485.234px" viewBox="0 0 485.234 485.234" style="enable-background:new 0 0 485.234 485.234;"
	 fill="black"
	 xml:space="preserve">
<g>
	<g>
		<path d="M212.282,257.789v30.322c0,12.209,8.352,14.99,15.164,15.168h15.164v-60.653h-15.164
			C220.634,242.803,212.282,245.589,212.282,257.789z"/>
		<path d="M272.931,394.255h15.178c6.818-0.178,15.168-2.964,15.168-15.164v-30.326c0-12.2-8.35-14.986-15.168-15.163h-15.178
			V394.255z"/>
		<path d="M327.209,151.65h6.39c16.76,0,30.331-13.567,30.331-30.329c0-15.576-11.91-27.953-27.073-29.673l23.872-47.742
			c7.462-14.984,1.419-33.167-13.567-40.69c-14.981-7.46-33.169-1.421-40.688,13.567l-4.271,8.468
			c-2.483-14.216-14.328-25.23-29.272-25.23c-16.745,0-30.326,13.591-30.326,30.322c0-16.731-13.577-30.322-30.322-30.322
			c-14.944,0-26.789,11.015-29.288,25.23l-4.238-8.468c-7.507-14.956-25.662-21.088-40.69-13.567
			c-14.986,7.523-21.058,25.706-13.567,40.69l23.873,47.742c-15.149,1.72-27.067,14.097-27.067,29.673
			c0,16.762,13.562,30.329,30.324,30.329h6.382C82.895,206.438,30.329,322.554,30.329,396.299c0,99.185,95.034,88.609,212.28,88.609
			c117.228,0,212.296,10.575,212.296-88.609C454.905,322.554,402.312,206.438,327.209,151.65z M288.108,303.279
			c18.309,0,45.49,12.111,45.49,45.485v30.326c0,33.375-27.186,45.485-45.49,45.485h-15.178v15.168
			c0,8.35-6.809,15.164-15.158,15.164s-15.163-6.814-15.163-15.164v-15.168h-45.49c-8.352,0-15.164-6.809-15.164-15.158
			c0-8.354,6.812-15.163,15.164-15.163h45.49v-60.653h-15.166c-18.3,0-45.488-12.111-45.488-45.49v-30.322
			c0-33.376,27.188-45.49,45.488-45.49h15.166v-15.161c0-8.352,6.813-15.166,15.163-15.166s15.158,6.813,15.158,15.166v15.161
			h45.509c8.35,0,15.159,6.814,15.159,15.164c0,8.352-6.81,15.164-15.159,15.164h-45.509v60.653H288.108z"/>
	</g>
</g>
<g>
</g>
<g>
</g>
<g>
</g>
<g>
</g>
<g>
</g>
<g>
</g>
<g>
</g>
<g>
</g>
<g>
</g>
<g>
</g>
<g>
</g>
<g>
</g>
<g>
</g>
<g>
</g>
<g>
</g>
</svg>
