<svg height="200" version="1.1" width="200" xmlns="http://www.w3.org/2000/svg" xmlns:xlink="http://www.w3.org/1999/xlink" style="overflow: hidden; position: relative; left: -0.5px;" viewBox="0 0 320 320"><svg height="320" version="1.1" width="320" xmlns="http://www.w3.org/2000/svg" xmlns:xlink="http://www.w3.org/1999/xlink" style="overflow: hidden; position: relative;" viewBox="0 0 160 160" preserveAspectRatio="xMidYMid meet" id="imported_svg_layer_1"><path fill="#b33131" stroke="none" d="M0,80A80,80,0,1,0,160,80A80,80,0,1,0,0,80" stroke-width="0" transform="matrix(1,0,0,1,0,0)" style="-webkit-tap-highlight-color: rgba(0, 0, 0, 0); display: none;"></path><desc style="-webkit-tap-highlight-color: rgba(0, 0, 0, 0);">Created with Logotizer</desc><defs style="-webkit-tap-highlight-color: rgba(0, 0, 0, 0);"></defs></svg><svg height="320" version="1.1" width="320" xmlns="http://www.w3.org/2000/svg" xmlns:xlink="http://www.w3.org/1999/xlink" style="overflow: hidden; position: relative;" viewBox="0 0 160 160" preserveAspectRatio="xMidYMid meet" id="imported_svg_layer_2"><desc style="-webkit-tap-highlight-color: rgba(0, 0, 0, 0);">Created with Logotizer</desc><defs style="-webkit-tap-highlight-color: rgba(0, 0, 0, 0);"></defs><path fill="#c81e00" stroke="#d5d5d5" d="M141,130H137C137,118.4,127.6,109,116,109S95,118.4,95,130H65C65,118.4,55.6,109,44,109S23,118.4,23,130H19C16.8,130,15,128.2,15,126V102H101V51H117C119.2,51,122.2,52.8,123.6,55L144,86C144.2,86.3,144.4,86.7,144.5,87H144.9V126C145,128.2,143.20000000000002,130,141,130ZM44,117C51.2,117,57,122.8,57,130S51.2,143,44,143S31,137.2,31,130S36.8,117,44,117ZM116,117C123.2,117,129,122.8,129,130S123.2,143,116,143S103,137.2,103,130S108.8,117,116,117ZM0,22H91V92H0V22Z" stroke-width="2.1739130434782608" transform="matrix(0.92,0,0,0.92,5.7962,6.6)" style="-webkit-tap-highlight-color: rgba(0, 0, 0, 0); cursor: move;"></path></svg><desc style="-webkit-tap-highlight-color: rgba(0, 0, 0, 0);">Created with Logotizer</desc><defs style="-webkit-tap-highlight-color: rgba(0, 0, 0, 0);"></defs><path fill="#ffffff" stroke="none" d="M-134.35,0L-134.35,-170.39L-40.95,-170.39L-13.06,-142.85L-13.06,-86.84L-40.95,-59.3L-106.7,-59.3L-106.7,0L-134.35,0M-106.7,-84.49L-52.91,-84.49L-40.72,-96.91L-40.72,-132.77L-52.91,-145.2L-106.7,-145.2L-106.7,-84.49ZM13.19,0L13.19,-170.39L134.48,-170.39L134.48,0L106.82,0L106.82,-145.2L40.84,-145.2L40.84,0L13.19,0Z" transform="matrix(0.52,0,0,0.52,96,159.2353)" style="-webkit-tap-highlight-color: rgba(0, 0, 0, 0);"></path></svg>