<svg height="200" version="1.1" width="200" xmlns="http://www.w3.org/2000/svg" xmlns:xlink="http://www.w3.org/1999/xlink" style="overflow: hidden; position: relative;" viewBox="68.99804734144026 192 424.97070265855973 67.11199999999997"><desc style="-webkit-tap-highlight-color: rgba(0, 0, 0, 0);">Created with Logotizer</desc><defs style="-webkit-tap-highlight-color: rgba(0, 0, 0, 0);"></defs><path fill="#ffffff" stroke="none" d="M122.093,99.998L122,100H60.866L61.6,97.243L68.324,72.175C68.849,70.216,67.96,68,66,68H55C52.065,68,50.011,69.559,48.153999999999996,70.795C41.931999999999995,75.413,33.349999999999994,81.882,28.692999999999998,84.94500000000001C24.465999999999998,87.13000000000001,22.107,86.82400000000001,20.025999999999996,87.31C13.131999999999996,88.49300000000001,11.752999999999997,93.459,11.752999999999997,93.459L10.738999999999997,97.24300000000001L10.231999999999998,99.135L8.710999999999999,104.811C7.836,108.076,9.734,111,13,111H21C21.011,110.957,20.869,110.64,20.88,110.6C22.576999999999998,104.27,29.091,99.13499999999999,35.428,99.13499999999999S45.7,104.666,44,111H114C115.176,111,116.208,109.769,116.524,108.594S116.176,106,115,106H59.257L59.525,105H121C122.176,105,123.6,103.384,123.914,102.209A1.857,1.857,0,0,0,122.093,99.998Z" stroke-width="0" opacity="1" transform="matrix(1,0,0,1,60.5,136)" style="-webkit-tap-highlight-color: rgba(0, 0, 0, 0); opacity: 1;"></path><path fill="#ffffff" stroke="none" d="M149,56H79A4.11,4.11,0,0,0,76.622,57.981L66.86,94.4A1.413,1.413,0,0,0,68,96H130A2.1,2.1,0,0,0,131.448,94.4L134,87H91C89.824,87,88.685,86.175,89,85S89.824,83,91,83H140A3.249,3.249,0,0,0,143,81C143.315,79.825,143.176,79,142,79H135L136,76H109C107.824,76,107.685,75.175,108,74A2.677,2.677,0,0,1,110.5,71.939L123,72H137L139.362,71.939H139.392A2.725,2.725,0,0,0,142,70C142.315,68.824,142.176,68,141,68H138L139,65H91C89.824,65,88.685,64.175,89,63A3.25,3.25,0,0,1,92,61H148A3.166,3.166,0,0,0,150.893,58.932C151.208,57.757,150.176,56,149,56Z" stroke-width="0" opacity="1" transform="matrix(1,0,0,1,60.5,136)" style="-webkit-tap-highlight-color: rgba(0, 0, 0, 0); opacity: 1;"></path><path fill="#ffffff" stroke="none" d="M-140.83,-31.58L-132.91,-31.58L-135.6,-18.96L-138.14,-18.96L-140.83,-31.58M-129.69,-31.58L-121.77,-31.58L-124.46,-18.96L-127,-18.96L-129.69,-31.58ZM-112.75,-32.26L-97.05,-32.26Q-93.02,-32.26,-90.38,-30.62Q-87.21,-28.66,-87.21,-24.72Q-87.21,-22.27,-88.34,-20.14Q-89.47,-18,-91.2,-16.66Q-94.56,-14.16,-101.95,-14.16L-105.98,-14.16L-109.29,-0.96L-104.88,-0.96L-105.12,0L-120.81,0L-120.57,-0.96L-116.16,-0.96L-108.57,-31.3L-112.99,-31.3L-112.75,-32.26M-105.69,-15.07L-100.84,-15.07Q-98.73,-15.07,-97.15,-17.09Q-96.33,-18.19,-95.47,-21.41L-94.65,-24.91Q-94.27,-26.74,-94.27,-27.74Q-94.27,-29.62,-95.13,-30.48Q-95.95,-31.3,-97.58,-31.3L-101.71,-31.3L-105.69,-15.07ZM-64.27,-12.53Q-64.27,-8.3,-67.39,-4.46Q-69.31,-2.11,-71.88,-0.72Q-74.44,0.67,-77.23,0.67Q-81.79,0.67,-84.24,-2.59Q-86.2,-5.33,-86.2,-9.02Q-86.2,-12.19,-84.52,-14.98Q-82.84,-17.76,-79.87,-19.49Q-76.46,-21.5,-73.05,-21.5Q-69.26,-21.5,-66.76,-18.86Q-64.27,-16.13,-64.27,-12.53M-78.24,-14.45L-80.4,-6.34Q-80.83,-4.61,-80.83,-3.5Q-80.83,-2.21,-80.2,-1.3Q-79.39,-0.19,-77.8,-0.19Q-76.32,-0.19,-74.97,-1.34Q-73.72,-2.45,-72.81,-5.81L-70.75,-13.39Q-70.03,-15.84,-70.03,-17.28Q-70.03,-18.86,-70.92,-19.75Q-71.8,-20.64,-73.05,-20.64Q-74.4,-20.64,-75.74,-19.58Q-77.28,-18.29,-78.24,-14.45ZM-42.86,-6.58L-42.19,-6.34Q-44.2,-2.59,-47.37,-0.62Q-49.53,0.67,-51.74,0.67Q-55.29,0.67,-57.88,-1.82Q-60.91,-4.7,-60.91,-8.88Q-60.91,-14.5,-55.82,-18.53Q-52.22,-21.5,-47.47,-21.5Q-44.83,-21.5,-42.96,-20.16Q-40.8,-18.67,-40.8,-16.46Q-40.8,-14.88,-41.73,-13.9Q-42.67,-12.91,-44.2,-12.91Q-45.64,-12.91,-46.44,-13.78Q-47.23,-14.64,-47.23,-15.74Q-47.23,-17.18,-45.98,-18Q-45.93,-18.05,-45.81,-18.1Q-45.69,-18.14,-45.62,-18.19Q-45.55,-18.24,-45.43,-18.31Q-45.31,-18.38,-45.26,-18.46Q-45.21,-18.53,-45.14,-18.62Q-45.07,-18.72,-45.04,-18.84Q-45.02,-18.96,-45.02,-19.1Q-45.02,-19.68,-45.64,-20.16Q-46.27,-20.64,-47.42,-20.64Q-49.44,-20.64,-50.92,-18.62Q-52.17,-16.85,-53.32,-12.53L-54.52,-8.06Q-55,-6.34,-55,-4.42Q-55,-2.45,-54.14,-1.44Q-53.08,-0.19,-51.31,-0.19Q-49.53,-0.19,-47.52,-1.49Q-44.92,-3.17,-42.86,-6.58ZM-32.06,-32.26L2.5,-32.26L2.26,-31.3L-2.16,-31.3L-9.79,-0.96L-5.32,-0.96L-5.56,0L-21.31,0L-21.07,-0.96L-16.6,-0.96L-9.02,-31.3L-20.97,-31.3L-28.6,-0.96L-24.14,-0.96L-24.38,0L-40.12,0L-39.88,-0.96L-35.42,-0.96L-27.84,-31.3L-32.3,-31.3L-32.06,-32.26ZM23.76,-12.53Q23.76,-8.3,20.64,-4.46Q18.72,-2.11,16.16,-0.72Q13.59,0.67,10.8,0.67Q6.24,0.67,3.8,-2.59Q1.83,-5.33,1.83,-9.02Q1.83,-12.19,3.51,-14.98Q5.19,-17.76,8.16,-19.49Q11.57,-21.5,14.98,-21.5Q18.77,-21.5,21.27,-18.86Q23.76,-16.13,23.76,-12.53M9.8,-14.45L7.64,-6.34Q7.2,-4.61,7.2,-3.5Q7.2,-2.21,7.83,-1.3Q8.64,-0.19,10.23,-0.19Q11.72,-0.19,13.06,-1.34Q14.31,-2.45,15.22,-5.81L17.28,-13.39Q18,-15.84,18,-17.28Q18,-18.86,17.12,-19.75Q16.23,-20.64,14.98,-20.64Q13.64,-20.64,12.29,-19.58Q10.76,-18.29,9.8,-14.45ZM41.91,-6.96L42.53,-6.62Q41.62,-5.23,40.08,-3.55Q37.73,-1.15,35.91,-0.19Q34.13,0.67,31.64,0.67Q29.28,0.67,27.94,-0.58Q26.45,-1.92,26.45,-4.08Q26.45,-5.14,26.98,-6.14Q27.51,-7.15,28.01,-7.63Q28.52,-8.11,29.43,-8.93L37.4,-15.74Q38.74,-16.94,38.74,-18.34Q38.74,-19.1,38.36,-19.54Q37.88,-20.02,36.96,-20.02Q35,-20.02,31.73,-17.23Q29.52,-15.26,28.61,-14.26L28.13,-14.93L30.87,-17.57Q32.93,-19.44,34.42,-20.26Q36.72,-21.5,38.84,-21.5Q40.71,-21.5,41.91,-20.4Q43.3,-19.1,43.3,-16.94Q43.3,-14.26,41.14,-12.43L32.98,-5.42Q31.25,-3.89,31.25,-2.69Q31.25,-1.73,31.85,-1.06Q32.45,-0.38,33.56,-0.38Q34.95,-0.38,36.77,-1.63Q38.55,-2.83,39.89,-4.51L41.91,-6.96ZM58.37,-20.83L57.12,-16.18Q58.71,-18.82,60.68,-20.16Q62.6,-21.5,64.42,-21.5Q67.92,-21.5,69.99,-18.29Q71.38,-16.08,71.38,-13.1Q71.38,-8.59,68.64,-4.85Q66.77,-2.35,64.23,-0.84Q61.68,0.67,59.57,0.67Q57.12,0.67,55.64,-1.3Q54.58,-2.64,54.29,-5.14L50.26,10.56L43.97,10.56L52.18,-20.02L47.33,-20.02L47.62,-20.83L58.37,-20.83M56.12,-12.24L55.35,-9.17Q54.92,-7.54,54.92,-6.29Q54.92,-4.32,55.64,-2.74Q56.79,-0.19,58.66,-0.19Q60.72,-0.19,62.02,-3.17Q62.74,-4.75,63.36,-7.2L64.85,-12.67Q65.96,-16.99,65.96,-18.05Q65.96,-20.64,63.84,-20.64Q62.26,-20.64,60.53,-19.15Q59.04,-17.86,57.6,-15.5Q56.55,-13.87,56.12,-12.24ZM97.59,-20.83L93.03,-3.84Q92.16,-0.62,90.77,1.82Q88.66,5.52,86.26,7.63Q82.56,10.75,78.29,10.75Q75.17,10.75,73.47,9.22Q71.76,7.68,71.76,5.9Q71.76,4.7,72.63,3.6Q73.49,2.5,75.17,2.5Q76.71,2.5,77.57,3.38Q78.44,4.27,78.44,5.71Q78.44,6.43,78.24,6.89Q78.05,7.34,77.86,7.54Q77.67,7.73,77.19,8.06Q76.47,8.5,76.47,8.88Q76.47,9.26,77.02,9.58Q77.57,9.89,78.58,9.89Q80.93,9.89,82.8,7.3Q84.1,5.42,85.4,1.44Q86.98,-3.7,87.41,-5.47L87.6,-6.29L87.41,-6.29Q86.12,-4.37,84.53,-2.78Q81.08,0.67,77.86,0.67Q75.8,0.67,74.84,-0.62Q73.97,-1.78,73.97,-3.65Q73.97,-5.18,74.69,-7.54L78.05,-20.02L73.2,-20.02L73.49,-20.83L84.24,-20.83L79.88,-4.03Q79.54,-2.59,79.54,-2.02Q79.54,-0.96,80.45,-0.96Q81.56,-0.96,84.15,-3.55Q86.93,-6.34,88.13,-9.22L91.2,-20.83L97.59,-20.83ZM101.28,-13.92L100.37,-13.92L102.39,-21.5L103.3,-21.5Q103.2,-20.88,103.56,-20.54Q103.92,-20.21,104.4,-20.21Q104.93,-20.21,105.94,-20.69Q108,-21.5,110.07,-21.5Q112.76,-21.5,114.39,-20.35Q116.07,-19.15,116.07,-17.33Q116.07,-15.22,114.34,-13.68Q112.9,-12.38,109.44,-11.33L109.35,-10.99Q111.56,-10.9,113.09,-10.03Q115.2,-8.88,115.2,-6.48Q115.2,-3.84,113.04,-1.87Q110.16,0.67,104.74,0.67Q101.28,0.67,99.27,-0.86Q97.2,-2.4,97.2,-4.9Q97.2,-6.34,98.19,-7.3Q99.17,-8.26,100.56,-8.26Q101.91,-8.26,102.87,-7.42Q103.83,-6.58,103.83,-5.09Q103.83,-3.84,103.25,-3.26Q102.68,-2.69,101.67,-2.3Q101.04,-2.02,101.04,-1.54Q101.04,-0.86,101.81,-0.53Q102.77,-0.1,103.92,-0.1Q105.84,-0.1,107.09,-1.39Q107.96,-2.35,108.44,-4.18L109.11,-7.01Q109.25,-7.44,109.25,-8.21Q109.25,-9.84,108.05,-10.42Q107.28,-10.75,105.99,-10.75L103.78,-10.75L104.02,-11.62L106.18,-11.62Q107.96,-11.62,108.77,-12.36Q109.59,-13.1,110.16,-14.98L110.64,-16.66Q110.98,-17.9,110.98,-18.72Q110.98,-20.74,108.92,-20.74Q106.85,-20.74,104.55,-18.53Q102.87,-16.85,101.28,-13.92ZM119.38,-31.58L127.3,-31.58L124.61,-18.96L122.07,-18.96L119.38,-31.58M130.52,-31.58L138.44,-31.58L135.75,-18.96L133.2,-18.96L130.52,-31.58Z" transform="matrix(1,0,0,1,351.5,242.112)" style="-webkit-tap-highlight-color: rgba(0, 0, 0, 0);" stroke-width="1"></path></svg>