<?xml version="1.0" standalone="no"?>
<!DOCTYPE svg PUBLIC "-//W3C//DTD SVG 20010904//EN"
 "http://www.w3.org/TR/2001/REC-SVG-20010904/DTD/svg10.dtd">
<svg version="1.0" xmlns="http://www.w3.org/2000/svg"
 width="400.000000pt" height="400.000000pt" viewBox="0 0 400.000000 400.000000"
 preserveAspectRatio="xMidYMid meet">
<metadata>
Created by potrace 1.15, written by Peter Selinger 2001-2017
</metadata>
<g transform="translate(0.000000,400.000000) scale(0.100000,-0.100000)"
fill="white" stroke="none">
<path d="M1865 3265 c-145 -31 -341 -104 -359 -134 -4 -6 2 -25 14 -41 27 -38
100 -193 100 -213 0 -9 -9 -19 -21 -22 -11 -4 -36 -20 -55 -37 -57 -51 -39
-104 45 -129 39 -11 41 -14 41 -50 0 -49 27 -117 51 -130 16 -8 19 -21 19 -74
0 -57 4 -68 34 -108 32 -42 33 -44 10 -39 -34 6 -50 -11 -64 -67 -9 -39 -9
-55 3 -83 8 -20 21 -39 28 -43 7 -5 5 2 -4 16 -23 32 -21 39 8 39 28 0 31 -9
13 -30 -7 -8 -3 -7 8 3 24 20 96 58 100 54 2 -2 -3 -32 -12 -67 -8 -35 -13
-68 -11 -73 2 -6 9 16 16 49 7 32 18 68 23 78 10 18 11 18 20 2 12 -21 83 -55
114 -56 21 0 22 -6 28 -167 8 -195 -5 -382 -29 -399 -19 -14 -19 -44 0 -44 10
0 15 -10 15 -32 0 -25 -10 -41 -47 -76 l-48 -45 45 26 45 26 -1 -52 c-1 -29 3
-59 10 -67 6 -8 13 -39 15 -67 3 -52 2 -53 -26 -54 -16 0 -22 -3 -13 -6 16 -6
30 -23 30 -36 0 -4 -21 -17 -47 -29 -38 -17 -80 -22 -217 -29 -121 -6 -173 -6
-183 2 -7 6 -13 7 -13 2 0 -5 -17 -9 -37 -10 -21 0 -67 -4 -103 -8 -58 -7 -63
-6 -50 8 8 8 38 22 65 31 28 8 41 15 30 15 -11 0 -38 -6 -60 -14 -21 -8 -41
-12 -43 -10 -8 8 31 68 49 72 14 4 19 14 19 42 0 20 7 61 16 91 8 30 22 88 30
128 7 40 18 80 23 89 7 14 10 13 21 -6 6 -13 14 -20 17 -18 2 3 -3 19 -12 36
-13 26 -14 39 -4 73 6 23 18 48 27 55 11 8 12 12 5 13 -24 0 -13 28 33 87 31
39 34 45 10 19 -44 -48 -45 -42 -5 29 17 30 28 55 25 55 -3 0 -13 -14 -21 -31
-27 -51 -26 -28 0 46 28 77 31 91 10 55 -17 -29 -19 -13 -5 45 5 22 14 80 20
129 15 125 31 191 40 176 5 -8 10 7 12 36 3 27 8 57 12 66 7 16 5 16 -35 -1
-32 -14 -80 -21 -174 -26 -178 -9 -235 -14 -247 -21 -6 -4 -21 -30 -34 -58
-13 -28 -28 -58 -32 -66 -30 -52 -46 -82 -73 -135 -17 -33 -48 -78 -68 -100
-21 -22 -44 -60 -52 -85 -7 -25 -35 -79 -60 -122 -106 -176 -105 -238 8 -573
36 -104 73 -223 84 -262 19 -73 19 -73 -1 -152 -21 -82 -27 -211 -11 -211 6 0
31 18 56 40 48 42 65 49 65 28 -1 -17 -35 -143 -54 -194 -17 -46 -41 -207 -51
-337 l-7 -87 229 2 228 3 19 60 c10 33 32 89 47 125 15 36 31 79 35 95 4 17 9
34 12 39 10 17 32 -79 32 -140 0 -34 3 -89 6 -123 l7 -61 203 0 204 0 1 193
c0 119 7 243 18 327 l17 135 8 -64 c4 -35 9 -61 12 -59 15 16 45 240 74 573
18 197 49 365 68 365 4 0 18 -21 32 -46 13 -26 47 -71 75 -100 41 -44 57 -54
83 -54 75 0 135 61 216 219 73 144 186 423 186 461 0 4 -29 10 -64 14 -65 6
-124 22 -140 37 -21 19 5 19 75 -1 82 -22 93 -24 85 -11 -3 5 1 14 8 21 12 9
19 7 35 -9 l20 -20 20 28 c24 33 22 35 -38 62 -24 10 -42 22 -38 25 3 3 18 -1
34 -9 62 -32 70 -31 83 9 9 27 9 39 1 47 -9 9 -13 6 -17 -10 -5 -19 -9 -20
-25 -10 -10 6 -19 16 -19 22 0 5 -16 24 -37 42 -45 40 -81 41 -95 1 -8 -23
-13 -26 -28 -18 -16 8 -17 14 -7 39 9 26 15 29 39 24 26 -5 28 -3 28 25 0 43
-53 61 -63 21 -4 -14 -11 -20 -21 -16 -8 3 -20 -1 -28 -10 -10 -12 -10 -17 -1
-20 23 -8 2 -33 -22 -27 -16 4 -26 0 -34 -13 -16 -28 -13 -6 4 27 15 29 15 30
-21 45 -20 8 -38 15 -39 15 -6 0 -55 -112 -55 -124 0 -6 15 -17 33 -24 28 -11
34 -10 45 5 18 25 15 7 -8 -36 -21 -41 -43 -53 -77 -40 -29 11 -27 57 3 124
13 27 24 56 24 63 0 22 -19 13 -26 -13 -3 -14 -17 -33 -29 -43 -13 -10 -26
-34 -30 -54 -5 -28 -2 -40 17 -62 28 -33 92 -50 109 -30 6 8 17 14 24 14 8 0
25 15 39 32 22 28 28 30 36 18 12 -18 3 -69 -16 -87 -7 -8 -19 -33 -25 -56 -6
-23 -36 -97 -66 -164 l-56 -123 -23 32 c-14 18 -24 46 -24 64 0 34 -17 128
-28 154 -3 8 -6 38 -6 65 -1 72 -22 97 -123 148 -115 58 -192 104 -221 130
-19 17 -22 18 -16 4 5 -14 1 -17 -22 -17 l-28 0 27 28 c16 17 27 39 27 56 0
16 11 41 25 57 15 19 27 49 31 79 4 27 13 51 20 54 11 4 14 33 14 129 l0 124
41 32 c114 92 103 172 -24 177 l-62 3 -12 63 c-6 35 -14 93 -16 130 -3 36 -8
71 -11 77 -9 14 -66 13 -141 -4z m198 -336 c9 -37 -40 -91 -118 -130 -51 -25
-80 -32 -148 -36 -112 -7 -135 -1 -153 43 -8 20 -14 38 -12 39 2 2 21 -1 43
-7 79 -21 284 41 345 105 27 28 34 26 43 -14z m-868 -1346 c-18 -129 -27 -175
-52 -272 -15 -56 -18 -61 -30 -45 -7 10 -13 28 -13 41 0 13 -9 49 -20 82 -15
43 -18 65 -11 84 5 14 8 27 5 30 -3 2 9 18 26 35 16 17 30 40 30 52 0 22 68
125 77 116 2 -2 -3 -57 -12 -123z"/>
<path d="M2601 2549 c-14 -11 -33 -39 -43 -61 -17 -39 -17 -41 -1 -55 16 -13
15 -13 -13 -8 -26 5 -34 2 -48 -19 -21 -33 -20 -39 4 -33 11 3 18 2 16 -2 -4
-6 94 -61 108 -61 7 0 26 62 21 70 -3 5 3 28 14 53 10 24 21 61 24 81 4 33 2
38 -20 47 -32 12 -34 12 -62 -12z"/>
<path d="M2970 2176 c0 -12 -4 -36 -9 -52 -5 -16 -12 -41 -15 -55 -3 -14 -13
-35 -23 -47 -10 -12 -26 -33 -36 -47 -11 -15 -25 -24 -33 -21 -8 3 -14 2 -14
-3 0 -10 35 -21 67 -21 31 0 70 52 93 127 25 80 25 112 3 129 -26 19 -33 17
-33 -10z"/>
</g>
</svg>
