<?xml version="1.0" standalone="no"?>
<!DOCTYPE svg PUBLIC "-//W3C//DTD SVG 20010904//EN"
 "http://www.w3.org/TR/2001/REC-SVG-20010904/DTD/svg10.dtd">
<svg version="1.0" xmlns="http://www.w3.org/2000/svg"
 width="400.000000pt" height="400.000000pt" viewBox="0 0 400.000000 400.000000"
 preserveAspectRatio="xMidYMid meet">

<g transform="translate(0.000000,400.000000) scale(0.100000,-0.100000)"
fill="white" stroke="none">
<path d="M1505 3439 c-175 -11 -364 -49 -409 -82 -18 -13 -18 -17 13 -103 29
-79 70 -238 71 -271 0 -7 -8 -13 -17 -13 -30 0 -141 -57 -152 -79 -32 -60 15
-124 119 -162 60 -22 65 -28 63 -76 -1 -7 3 -13 7 -13 4 0 10 -12 13 -27 3
-16 11 -54 17 -85 7 -34 17 -58 25 -58 7 0 20 -30 30 -67 21 -82 45 -123 93
-163 42 -34 41 -35 -13 -16 -27 9 -46 11 -57 5 -16 -9 -18 -4 -18 47 l0 56
-45 -47 c-25 -25 -68 -56 -95 -69 -27 -13 -55 -28 -62 -33 -19 -16 -202 -82
-275 -100 l-62 -16 -15 -51 c-64 -224 -101 -435 -131 -741 -26 -279 -19 -385
31 -452 13 -17 85 -68 159 -114 101 -61 134 -86 130 -98 -35 -112 -65 -347
-65 -513 l0 -98 655 0 655 0 -5 23 c-2 12 -9 123 -15 247 -6 129 -16 251 -25
285 -24 99 -14 395 17 514 l12 44 12 -59 c15 -73 54 -163 82 -187 17 -16 26
-17 59 -8 21 6 51 11 68 11 54 0 134 51 234 150 53 52 141 127 194 165 104 75
103 72 77 141 l-11 27 -29 -28 c-28 -27 -30 -27 -55 -11 -34 22 -85 94 -92
129 -6 28 -8 27 -118 -83 l-113 -112 -16 53 c-9 30 -28 115 -42 189 -34 178
-100 448 -125 515 -17 46 -24 54 -52 60 -18 3 -93 22 -167 42 l-135 36 -94 76
c-51 42 -102 80 -112 86 -10 5 -20 18 -23 29 -7 28 26 124 46 129 24 7 62 139
55 194 -2 25 0 43 5 43 6 0 8 7 5 15 -10 25 18 64 74 104 86 62 112 129 67
171 -25 23 -106 50 -150 50 -17 0 -31 7 -35 16 -4 12 6 188 20 334 4 47 -79
62 -278 49z m265 -477 c0 -40 -5 -53 -27 -74 -40 -38 -118 -74 -191 -88 -86
-17 -235 -9 -292 17 -57 25 -66 37 -74 96 l-7 49 29 -22 c17 -13 57 -26 101
-33 128 -19 356 23 418 78 16 13 31 25 36 25 4 0 7 -22 7 -48z m-227 -866 c9
-23 60 -45 112 -47 28 -2 49 -8 52 -16 3 -7 0 -75 -6 -151 l-10 -137 -101
-255 c-56 -140 -103 -256 -105 -258 -1 -2 -46 126 -99 285 l-96 288 0 117 0
116 53 7 c56 8 96 25 116 49 17 20 77 21 84 2z m531 -267 c20 -43 19 -108 -3
-161 -10 -26 -15 -28 -67 -28 l-56 0 7 43 c4 23 15 51 25 62 9 11 20 35 24 54
6 32 31 71 45 71 3 0 14 -19 25 -41z"/>
<path d="M2787 2599 c-31 -57 -32 -59 -12 -59 13 0 15 -23 15 -146 l0 -145 28
3 27 3 3 140 c1 77 7 142 12 145 6 4 -1 27 -18 57 l-27 51 -28 -49z"/>
<path d="M2618 2591 c-27 -47 -27 -49 -8 -54 19 -5 20 -14 20 -146 0 -134 1
-141 20 -141 19 0 20 7 20 145 0 136 1 145 19 145 17 0 17 4 -8 50 -14 27 -28
50 -31 50 -3 0 -17 -22 -32 -49z"/>
<path d="M3006 2356 c3 -8 1 -23 -5 -34 -8 -15 -5 -31 14 -70 28 -57 27 -57
78 -66 l37 -7 0 41 c0 39 -1 40 -35 40 -19 0 -35 3 -35 6 0 17 23 44 32 38 11
-7 11 -6 -11 39 -11 21 -21 27 -47 27 -25 0 -32 -4 -28 -14z"/>
<path d="M2560 2205 l0 -35 180 0 180 0 0 35 0 35 -180 0 -180 0 0 -35z"/>
<path d="M2627 1843 c-4 -3 -7 -10 -7 -15 0 -4 159 -7 353 -6 228 2 351 7 350
13 -3 11 -685 20 -696 8z"/>
</g>
</svg>
