  <svg height="100" width="100" version="1.1"  xmlns="http://www.w3.org/2000/svg" xmlns:xlink="http://www.w3.org/1999/xlink" style="overflow: hidden; position: relative;" viewBox="236.1 241.11200000000002 124.24375 91"><path fill="#A52A2A" stroke="none" d="M-43.83,-10.03L-43.16,-10.03Q-41.76,-6.58,-40.23,-4.61Q-38.6,-2.35,-36.29,-1.37Q-33.99,-0.38,-31.88,-0.38Q-28.42,-0.38,-26.64,-2.5Q-25.11,-4.13,-25.11,-6.72Q-25.11,-8.98,-26.4,-10.46Q-27.65,-11.9,-30.24,-12.62L-35.91,-14.16Q-38.74,-14.88,-41.33,-17.28Q-43.06,-19.39,-43.06,-22.9Q-43.06,-27.89,-39.65,-30.14Q-37.44,-31.97,-34.42,-31.97Q-31.97,-31.97,-29.91,-31.15Q-27.51,-30.24,-27.17,-30.24Q-26.36,-30.24,-25.49,-31.44L-24.72,-31.44L-24.53,-23.86L-25.2,-23.86Q-26.5,-26.78,-28.13,-28.42Q-29.33,-29.66,-31.04,-30.36Q-32.74,-31.06,-34.37,-31.06Q-37.16,-31.06,-38.88,-29.33Q-40.47,-27.74,-40.47,-25.2Q-40.47,-22.99,-38.84,-21.41Q-38.55,-21.12,-38.26,-20.9Q-37.97,-20.69,-37.61,-20.52Q-37.25,-20.35,-37.01,-20.23Q-36.77,-20.11,-36.36,-19.97Q-35.96,-19.82,-35.76,-19.78Q-35.57,-19.73,-35.12,-19.63Q-34.66,-19.54,-34.56,-19.49L-29.67,-18.19Q-25.4,-16.99,-23.62,-13.87Q-22.52,-11.86,-22.52,-8.93Q-22.52,-5.28,-24.53,-2.78Q-27.08,0.53,-31.88,0.53Q-35,0.53,-37.73,-0.67Q-38.07,-0.82,-38.6,-1.08Q-39.12,-1.34,-39.41,-1.46Q-39.7,-1.58,-40.06,-1.7Q-40.42,-1.82,-40.76,-1.82Q-42.44,-1.82,-42.68,0L-43.83,0L-43.83,-10.03ZM-10.9,-28.9L-10.9,-20.45L-6.72,-20.45L-6.72,-19.63L-10.9,-19.63L-10.9,-3.89Q-10.9,-2.3,-10.42,-1.63Q-9.99,-1.1,-9.03,-1.1Q-8.16,-1.1,-7.25,-1.49Q-6.29,-1.92,-5.76,-2.5L-5.28,-1.92Q-6.15,-1.06,-7.85,-0.26Q-9.56,0.53,-11.24,0.53Q-13.3,0.53,-14.4,-0.72Q-15.6,-1.92,-15.6,-4.94L-15.6,-19.63L-19.54,-19.63L-19.54,-20.45L-15.6,-20.45L-15.6,-27.22L-10.9,-28.9ZM13.96,-5.71L14.78,-5.18Q13.58,-3.12,11.8,-1.63Q9.36,0.53,5.9,0.53Q1.34,0.53,-1.64,-2.74Q-4.23,-5.71,-4.23,-10.03Q-4.23,-14.45,-1.59,-17.52Q1.34,-20.98,5.66,-20.98Q9.98,-20.98,12.48,-17.71Q14.49,-15.12,14.59,-11.33L1.15,-11.33L1.15,-8.06Q1.15,-4.03,2.44,-2.26Q3.98,-0.34,6.28,-0.34Q8.78,-0.34,11.32,-2.59Q12.76,-3.94,13.96,-5.71M1.15,-12.14L9.6,-12.14L9.6,-13.39Q9.6,-15.98,9.16,-17.57Q8.3,-20.16,5.52,-20.16Q2.88,-20.16,1.72,-17.95Q1.15,-16.75,1.15,-15.17L1.15,-12.14ZM19.68,-30.48L16.65,-30.48L16.65,-31.3L21.45,-31.3Q23.47,-31.3,24.38,-31.58L24.38,-0.82L27.4,-0.82L27.4,0L16.65,0L16.65,-0.82L19.68,-0.82L19.68,-30.48ZM29.28,0.19L29.28,-6.24L29.95,-6.24Q30.96,-3.6,32.83,-2.02Q34.75,-0.34,37.34,-0.34Q39.74,-0.34,40.87,-1.42Q42,-2.5,42,-3.89Q42,-5.18,41.08,-6.1Q40.46,-6.86,38.59,-7.44L34.7,-8.54Q32.35,-9.36,31.15,-10.58Q29.95,-11.81,29.8,-14.59Q29.8,-17.95,32.3,-19.73Q34.08,-20.98,36.43,-20.98Q37.96,-20.98,39.21,-20.45Q41.13,-19.78,41.32,-19.78Q42.09,-19.78,42.52,-20.45L43.15,-20.45L43.15,-14.78L42.52,-14.78Q41.23,-17.62,40.17,-18.67Q38.64,-20.11,36.38,-20.11Q34.46,-20.11,33.4,-19.34Q32.11,-18.43,32.11,-16.61Q32.11,-15.65,32.66,-14.98Q33.21,-14.3,33.6,-14.14Q33.98,-13.97,34.84,-13.63L40.51,-11.86Q42.67,-11.14,43.68,-9.89Q44.78,-8.54,44.78,-6.38Q44.78,-3.84,43.34,-2.02Q41.28,0.53,37.39,0.53Q35.56,0.53,33.16,-0.48Q31.92,-1.01,31.53,-1.01Q30.48,-1.01,29.95,0.19L29.28,0.19Z" transform="matrix(1,0,0,1,314.5,320.112)"></path><path fill="#A52A2A" stroke="none" d="M-36.22,-31.44L-23.21,-31.44Q-16.15,-31.44,-13.61,-30Q-10.06,-28.08,-10.06,-24.43Q-10.06,-21.17,-12.41,-19.25Q-15,-17.14,-19.9,-16.75L-19.9,-16.56Q-18.36,-16.32,-16.35,-15.58Q-14.33,-14.83,-13.27,-13.78Q-11.64,-12.24,-11.26,-8.74Q-10.54,-2.88,-10.35,-2.3Q-9.96,-1.2,-9.15,-1.2Q-7.95,-1.2,-6.6,-2.83L-5.88,-2.06Q-6.7,-0.91,-7.73,-0.29Q-8.76,0.34,-9.39,0.43Q-10.01,0.53,-10.97,0.53Q-13.95,0.53,-15.34,-1.3Q-16.25,-2.54,-16.68,-6.72Q-16.73,-6.96,-16.8,-7.73Q-16.87,-8.5,-16.9,-8.78Q-16.92,-9.07,-17.02,-9.77Q-17.11,-10.46,-17.19,-10.78Q-17.26,-11.09,-17.35,-11.66Q-17.45,-12.24,-17.55,-12.55Q-17.64,-12.86,-17.81,-13.3Q-17.98,-13.73,-18.15,-14.02Q-18.31,-14.3,-18.53,-14.59Q-18.75,-14.88,-18.99,-15.07Q-20.23,-16.13,-23.26,-16.13L-27.15,-16.13L-27.15,-0.96L-23.45,-0.96L-23.45,0L-36.22,0L-36.22,-0.96L-32.52,-0.96L-32.52,-30.48L-36.22,-30.48L-36.22,-31.44M-27.15,-17.09L-23.79,-17.09Q-19.56,-17.09,-17.59,-19.2Q-16.11,-20.78,-16.11,-24.48Q-16.11,-28.27,-18.41,-29.57Q-19.99,-30.48,-23.5,-30.48L-27.15,-30.48L-27.15,-17.09ZM12.31,-5.71L13.13,-5.18Q11.93,-3.12,10.15,-1.63Q7.7,0.53,4.25,0.53Q-0.31,0.53,-3.29,-2.74Q-5.88,-5.71,-5.88,-10.03Q-5.88,-14.45,-3.24,-17.52Q-0.31,-20.98,4.01,-20.98Q8.33,-20.98,10.82,-17.71Q12.84,-15.12,12.93,-11.33L-0.51,-11.33L-0.51,-8.06Q-0.51,-4.03,0.79,-2.26Q2.33,-0.34,4.63,-0.34Q7.13,-0.34,9.67,-2.59Q11.11,-3.94,12.31,-5.71M-0.51,-12.14L7.94,-12.14L7.94,-13.39Q7.94,-15.98,7.51,-17.57Q6.65,-20.16,3.86,-20.16Q1.22,-20.16,0.07,-17.95Q-0.51,-16.75,-0.51,-15.17L-0.51,-12.14ZM29.69,-30.48L26.66,-30.48L26.66,-31.3L31.46,-31.3Q33.48,-31.3,34.39,-31.58L34.39,-0.82L37.41,-0.82L37.41,0L29.69,0L29.69,-2.59Q29.06,-1.54,28.1,-0.72Q26.57,0.53,24.6,0.53Q20.09,0.53,17.21,-3.6Q15.24,-6.53,15.24,-9.98Q15.24,-14.5,17.93,-17.66Q20.76,-20.98,25.03,-20.98Q26.76,-20.98,27.96,-20.21Q28.92,-19.63,29.69,-18.72L29.69,-30.48M20.61,-12.96L20.61,-6.58Q20.61,-3.65,21.53,-2.21Q22.73,-0.34,24.93,-0.34Q27.38,-0.34,28.77,-2.5Q29.69,-3.84,29.69,-5.47L29.69,-14.69Q29.69,-17.04,28.97,-18.19Q27.72,-20.11,25.51,-20.11Q24.12,-20.11,22.99,-19.34Q21.86,-18.58,21.33,-17.28Q20.61,-15.89,20.61,-12.96Z" transform="matrix(1,0,0,1,302.5,285.112)"></path><path fill="#A52A2A" stroke="none" d="M115.366,145.734S115.049,123.715,114.976,123.64200000000001S112.781,122.76800000000001,112.781,122.76800000000001L103.808,103.78400000000002L104.34500000000001,98.73400000000002L110.05000000000001,97.03700000000002S104.46600000000001,88.83100000000002,104.49100000000001,88.73700000000002S104.39100000000002,87.28000000000003,104.39100000000002,87.28000000000003L88.446,75.77L77.229,79.07L71.429,65.37799999999999A13.392,13.392,0,0,0,72.746,64.06699999999998A250,250,0,0,0,71.966,61.68799999999998L78.98899999999999,58.774999999999984L73.52699999999999,55.521999999999984L89.13299999999998,48.18999999999998L90.30299999999998,45.664999999999985S97.64299999999999,35.929999999999986,97.81299999999999,35.56499999999998S98.83699999999999,30.854999999999983,98.83699999999999,30.854999999999983L94.78599999999999,16.387999999999984H93.12799999999999L85.12799999999999,29.642999999999986L81.57,46.054999999999986L80.5,47.170999999999985L70.747,50.52099999999999L71.039,40.52099999999999L68.5,38.33499999999999L65.77,50.08499999999999L61.769999999999996,50.036999999999985S59.159,38.383999999999986,59.089,38.38299999999998L59.088,38.38399999999998C59.039,38.48099999999998,56.308,41.00599999999998,56.308,41.00599999999998L57.04,51.05599999999998L44.215,46.1L40.7,30.178L31.584,16L30.657,16.583S27,30.517,27,30.76S27.585,35.660000000000004,27.585,35.660000000000004S35.436,45.516000000000005,35.485,45.760000000000005S36.509,48,36.509,48L51.919,55.186L47.384,56.837L54.26,60.818000000000005L53.772,61.789L56.942,67.227L51.382,84.464L52.26,86.455L48.016999999999996,103.789L52.26,113.063L49.821999999999996,130.639L50.016999999999996,131.61L51.87,132.824S58.331999999999994,143.87,58.405,143.943L62.013,147.584L65.03699999999999,145.205L61.18399999999999,142.24300000000002L62.06199999999999,140.49500000000003L54.64999999999999,131.07600000000002L54.21099999999999,128.06600000000003L61.37999999999999,118.20900000000003L62.25799999999999,118.50100000000003S66.62199999999999,117.33000000000003,67.00999999999999,117.33000000000003A0.039,0.039,0,0,1,67.03699999999999,117.33500000000002C67.10999999999999,117.43200000000002,67.91499999999999,129.27900000000002,67.91499999999999,129.27900000000002L66.74499999999999,131.8L67.57399999999998,134.131L66.01299999999998,151.853Q67.29399999999998,151.935,68.57799999999997,151.935Q69.39299999999997,151.935,70.20699999999998,151.90200000000002C70.30699999999997,151.75600000000003,70.13399999999999,146.002,70.25599999999999,145.978S70.939,145.87800000000001,70.939,145.87800000000001L71.03899999999999,133.74S71.98999999999998,131.846,72.01399999999998,131.749S71.23399999999998,129.321,71.23399999999998,129.321S76.23399999999998,114.342,76.35499999999998,114.321S77.67099999999998,113.78699999999999,77.67099999999998,113.78699999999999L84.98599999999998,128.547L79.37799999999997,147.147L77.08599999999997,151.857Q78.05999999999997,151.921,79.03599999999997,151.921Q80.01099999999997,151.921,80.98599999999998,151.857C80.98599999999998,151.687,81.96099999999997,148.41,81.96099999999997,148.41L81.37599999999998,147.779S93.25099999999998,129.474,93.17599999999997,129.328S90.24999999999997,127.38600000000001,90.24999999999997,127.38600000000001L89.42099999999998,110.24600000000001L90.20099999999998,109.76100000000001L106.43999999999998,124.37500000000001L112.14599999999999,146.467L109.66,152H114.78099999999999L115.99999999999999,146.9Z" opacity="1" transform="matrix(0.3,0,0,0.3,228,277)"></path></svg>