<svg xmlns="" width="20" height="20" viewBox="0 0 160.093 135.41">
  <path id="telegram" class="cls-1" d="M970.961,1191.95l-143.476,54.31c-7.847,2.27-7.6,10.02-1.794,11.88l35.95,11.22,13.755,42.17c1.672,4.62,3.04,6.35,5.9,6.39,3,0.04,4.149-1.05,7.266-3.81,3.65-3.42,9.208-8.82,17.991-17.36l37.394,27.63c6.881,3.8,11.85,1.83,13.563-6.39l23.444-115.95C983.462,1191.96,977.544,1188.96,970.961,1191.95Zm-103.678,74.84,81.731-51.28c4.026-2.7,5.288.32,3.471,2.4l-67.831,61.01-3.48,30.45Z" transform="translate(-821.438 -1190.84)" fill="#fff"/>
</svg>
